<?xml version="1.0" encoding="UTF-8" standalone="no"?>
<!DOCTYPE svg PUBLIC "-//W3C//DTD SVG 20010904//EN"
              "http://www.w3.org/TR/2001/REC-SVG-20010904/DTD/svg10.dtd">

<svg xmlns="http://www.w3.org/2000/svg"
     width="16.8111in" height="17.7778in"
     viewBox="0 0 1513 1600">
  <path id="ntfh-path"
        fill="none" stroke="black" stroke-width="1"
        d="M 1482.36,8.87
           C 1467.23,13.75 1437.48,23.25 1416.09,30.00
             1340.57,54.00 1321.81,60.00 1270.42,76.25
             1241.91,85.37 1215.53,93.62 1212.03,94.87
             1212.03,94.87 1205.40,96.88 1205.40,96.88
             1205.40,96.88 821.52,550.62 821.52,550.62
             610.33,800.12 436.77,1004.88 435.89,1005.50
             434.77,1006.25 415.51,991.62 370.75,955.87
             370.75,955.87 307.23,905.25 307.23,905.25
             307.23,905.25 262.96,958.25 262.96,958.25
             238.70,987.38 218.82,1011.75 218.82,1012.25
             218.82,1012.75 253.33,1030.50 295.35,1051.75
             337.49,1073.00 372.25,1090.50 372.50,1090.75
             372.62,1090.88 370.87,1093.50 368.25,1096.50
             365.00,1100.50 361.87,1102.62 357.24,1104.25
             353.12,1105.62 347.86,1109.00 342.74,1113.62
             342.74,1113.62 334.74,1120.75 334.74,1120.75
             334.74,1120.75 336.24,1127.38 336.24,1127.38
             336.24,1127.38 337.61,1134.12 337.61,1134.12
             337.61,1134.12 328.61,1144.75 328.61,1144.75
             319.86,1154.88 319.11,1155.50 311.35,1157.62
             304.23,1159.62 302.35,1160.88 296.72,1167.12
             296.72,1167.12 290.22,1174.38 290.22,1174.38
             290.22,1174.38 290.85,1181.25 290.85,1181.25
             290.85,1181.25 291.60,1188.12 291.60,1188.12
             291.60,1188.12 283.09,1199.38 283.09,1199.38
             278.47,1205.50 274.59,1210.75 274.47,1211.00
             274.34,1211.12 270.46,1211.62 265.84,1212.12
             265.84,1212.12 257.46,1212.88 257.46,1212.88
             257.46,1212.88 250.58,1221.12 250.58,1221.12
             243.33,1229.88 243.33,1229.50 245.83,1240.25
             246.58,1243.25 245.46,1244.88 237.70,1252.88
             229.20,1261.62 228.45,1262.12 219.70,1264.25
             211.07,1266.25 210.07,1266.88 204.44,1273.25
             204.44,1273.25 198.44,1280.25 198.44,1280.25
             198.44,1280.25 200.07,1287.00 200.07,1287.00
             200.07,1287.00 201.69,1293.62 201.69,1293.62
             201.69,1293.62 194.69,1302.88 194.69,1302.88
             187.44,1312.50 185.31,1313.75 175.81,1313.75
             172.68,1313.75 170.43,1315.25 164.43,1321.25
             160.30,1325.38 156.55,1328.75 155.93,1328.75
             155.43,1328.75 133.79,1311.75 108.04,1291.12
             68.65,1259.50 60.77,1253.75 59.39,1255.12
             57.27,1257.38 0.00,1348.75 0.00,1349.88
             0.00,1350.38 16.01,1363.00 35.64,1378.00
             55.27,1393.00 71.52,1405.75 71.90,1406.25
             72.15,1406.75 66.90,1419.12 60.02,1433.88
             53.14,1448.50 47.89,1460.88 48.39,1461.38
             49.02,1461.75 83.90,1488.38 125.92,1520.50
             125.92,1520.50 202.44,1578.88 202.44,1578.88
             202.44,1578.88 227.58,1562.50 227.58,1562.50
             241.45,1553.62 253.33,1546.25 253.96,1546.25
             254.58,1546.25 270.84,1558.38 290.22,1573.25
             309.48,1588.00 325.73,1600.00 326.36,1599.75
             328.11,1599.12 406.38,1532.00 406.38,1531.12
             406.38,1530.62 386.63,1514.50 362.49,1495.12
             329.11,1468.38 319.36,1460.00 321.73,1460.00
             323.98,1460.00 326.73,1457.88 331.73,1452.38
             337.49,1445.88 338.61,1443.75 339.24,1438.50
             339.99,1433.00 341.11,1431.00 349.12,1421.62
             354.12,1415.88 358.87,1410.25 359.62,1409.25
             360.62,1408.00 363.62,1407.50 369.25,1407.50
             369.25,1407.50 377.62,1407.50 377.62,1407.50
             377.62,1407.50 383.13,1400.00 383.13,1400.00
             387.13,1394.38 388.75,1390.75 389.38,1386.00
             390.13,1380.25 391.25,1378.50 399.13,1369.75
             406.63,1361.38 408.51,1360.00 412.01,1360.00
             423.01,1360.00 426.89,1358.62 434.27,1352.00
             434.27,1352.00 441.52,1345.62 441.52,1345.62
             441.52,1345.62 440.27,1338.12 440.27,1338.12
             440.27,1338.12 439.15,1330.62 439.15,1330.62
             439.15,1330.62 447.90,1321.62 447.90,1321.62
             456.28,1313.25 457.28,1312.50 465.65,1310.50
             473.28,1308.75 475.41,1307.62 481.03,1302.12
             487.54,1295.75 487.66,1295.62 487.66,1288.12
             487.66,1288.12 487.66,1280.62 487.66,1280.62
             487.66,1280.62 498.04,1270.25 498.04,1270.25
             507.92,1260.50 509.04,1259.62 517.30,1257.50
             524.92,1255.50 526.80,1254.38 532.43,1248.50
             538.43,1242.38 538.93,1241.50 538.93,1235.50
             538.93,1230.38 539.55,1228.62 542.18,1226.12
             542.18,1226.12 545.43,1223.12 545.43,1223.12
             545.43,1223.12 549.93,1228.12 549.93,1228.12
             552.56,1230.88 576.19,1256.62 602.57,1285.38
             628.96,1314.12 650.97,1337.50 651.59,1337.25
             653.97,1336.38 745.25,1239.50 744.37,1238.75
             743.87,1238.25 716.49,1218.38 683.60,1194.38
             683.60,1194.38 623.83,1151.00 623.83,1151.00
             623.83,1151.00 681.23,1093.25 681.23,1093.25
             712.74,1061.62 886.79,885.75 1067.85,702.50
             1248.91,519.25 1416.97,349.38 1441.23,325.00
             1441.23,325.00 1485.24,280.62 1485.24,280.62
             1485.24,280.62 1499.12,141.25 1499.12,141.25
             1506.75,64.63 1513.00,1.50 1513.00,0.87
             1513.00,-0.75 1510.37,0.00 1482.36,8.87 Z" />
</svg>
